<svg xmlns="http://www.w3.org/2000/svg" width="32" height="28" viewBox="0 0 32 28">
  <defs>
    <style>
      .cls-1 {
        fill: #fff;
        fill-rule: evenodd;
      }
    </style>
  </defs>
  <path id="Car" class="cls-1" d="M1191.97,1523.13a1.46,1.46,0,0,0,.03-0.22c-0.05-.49-1.18-11.91-9-11.91h-8c-7.12,0-9,7.85-9,12a0.5,0.5,0,0,0,.03.13A4,4,0,0,0,1163,1527v4a4,4,0,0,0,4,4v3a1,1,0,0,0,1,1h4a1,1,0,0,0,1-1v-3h12v3a1,1,0,0,0,1,1h4a1,1,0,0,0,1-1v-3a4,4,0,0,0,4-4v-4A4,4,0,0,0,1191.97,1523.13ZM1175,1513h8c5.71,0,6.88,9.02,6.99,10H1168C1168,1522.59,1168.1,1513,1175,1513Zm-4,24h-2v-2h2v2Zm18,0h-2v-2h2v2Zm4-6a2.006,2.006,0,0,1-2,2h-24a2.006,2.006,0,0,1-2-2v-4a2.006,2.006,0,0,1,2-2h24a2.006,2.006,0,0,1,2,2v4Zm-4-4a2,2,0,1,0,2,2A2,2,0,0,0,1189,1527Zm-20,0a2,2,0,1,0,2,2A2,2,0,0,0,1169,1527Zm15,1h-10a1,1,0,0,0,0,2h10A1,1,0,0,0,1184,1528Z" transform="translate(-1163 -1511)"/>
</svg>
