<svg xmlns="http://www.w3.org/2000/svg" width="32" height="32" viewBox="0 0 32 32">
  <defs>
    <style>
      .cls-1 {
        fill: #fff;
        fill-rule: evenodd;
      }
    </style>
  </defs>
  <path id="Clock" class="cls-1" d="M1179,1563a16,16,0,1,0,16,16A16,16,0,0,0,1179,1563Zm0,30a14,14,0,1,1,14-14A14,14,0,0,1,1179,1593Zm12-15h-1a1,1,0,0,0,0,2h1A1,1,0,0,0,1191,1578Zm-4.22-8.19-0.71.7a1.008,1.008,0,0,0,0,1.42,1,1,0,0,0,1.41,0l0.71-.71A1,1,0,1,0,1186.78,1569.81Zm-15.56-.01a1,1,0,0,0-1.41,0,1.008,1.008,0,0,0,0,1.42l0.71,0.71a1,1,0,0,0,1.41,0,1.008,1.008,0,0,0,0-1.42ZM1168,1578h-1a1,1,0,0,0,0,2h1A1,1,0,0,0,1168,1578Zm2.52,8.07-0.71.71a1,1,0,1,0,1.41,1.41l0.71-.71A1,1,0,0,0,1170.52,1586.07ZM1179,1589a1,1,0,0,0-1,1v1a1,1,0,0,0,2,0v-1A1,1,0,0,0,1179,1589Zm8.48-2.93a1,1,0,0,0-1.41,1.41l0.71,0.71a1,1,0,1,0,1.41-1.41Zm-5.78-5.78a2.98,2.98,0,0,0,.3-1.29,3.01,3.01,0,0,0-2-2.82V1568a1,1,0,0,0-2,0v8.18a3,3,0,0,0,1,5.82,2.98,2.98,0,0,0,1.29-.3l3.39,3.39a0.987,0.987,0,0,0,1.41-.01,1.02,1.02,0,0,0-.02-1.43Zm-2.7-.29a1,1,0,1,1,1-1A1,1,0,0,1,1179,1580Z" transform="translate(-1163 -1563)"/>
</svg>
