<svg xmlns="http://www.w3.org/2000/svg" width="32" height="32" viewBox="0 0 32 32">
  <defs>
    <style>
      .cls-1 {
        fill: #fff;
        fill-rule: evenodd;
      }
    </style>
  </defs>
  <path id="Wallet" class="cls-1" d="M1194,1625h-1v-10a4,4,0,0,0-4-4h-22a4,4,0,0,0-4,4v26a1.993,1.993,0,0,0,2,2h26a1.993,1.993,0,0,0,2-2v-8h1a1,1,0,0,0,1-1v-6A1,1,0,0,0,1194,1625Zm-27-12h22a2.006,2.006,0,0,1,2,2h-26A2.006,2.006,0,0,1,1167,1613Zm24,27a1,1,0,0,1-1,1h-24a1,1,0,0,1-1-1v-22a1,1,0,0,1,1-1h24a1,1,0,0,1,1,1v7h-8a1,1,0,0,0-1,1v6a1,1,0,0,0,1,1h8v7Zm2-9h-9v-4h9v4Zm-7-1a1,1,0,1,0-1-1A1,1,0,0,0,1186,1630Z" transform="translate(-1163 -1611)"/>
</svg>
